<svg xmlns="http://www.w3.org/2000/svg" version="1.1" xmlns:xlink="http://www.w3.org/1999/xlink" xmlns:svgjs="http://svgjs.dev/svgjs" width="100%" height="100%" viewBox="0 0 1000 600"><rect width="1000" height="600" x="0" y="0" fill="#358597"/><g><circle r="166.66666666666666" cx="431.247324625651" cy="453.4695986045201" fill="#f4a896" transform="matrix(0.47244559493695804,0,0,0.47244559493695804,0,85.76028188676665)"/><path d="M326.9909381092076 524.8490865113617L326.9909381092076 518.4435913079571L346.23527369856663 518.4435913079571Q351.63816965274265 518.4435913079571 351.63816965274265 513.0128453746358L351.63816965274265 513.0128453746358L351.63816965274265 393.31363500840587Q351.63816965274265 390.5007871147369 350.44062054949745 389.19183809491074Q349.24307144625226 387.88288907508456 346.23527369856663 387.88288907508456L346.23527369856663 387.88288907508456L339.0221290999502 387.88288907508456Q326.37823856801236 387.88288907508456 317.15989547093886 400.721729461039L317.15989547093886 400.721729461039Q311.3392498295842 408.937473308884 309.33405133112717 421.27501407022413Q307.32885283267007 433.6125548315643 307.32885283267007 439.4332004729189L307.32885283267007 439.4332004729189L301.70315704533215 439.4332004729189L303.3184558357559 382.09009341287526L418.4224196430218 382.09009341287526L420.00986845430026 439.4332004729189L414.4120226461076 439.4332004729189Q414.4120226461076 433.6125548315643 412.4068241476505 421.27501407022413Q410.4016256491934 408.937473308884 404.58098000783883 400.721729461039L404.58098000783883 400.721729461039Q395.3626369107653 387.88288907508456 382.7187463788275 387.88288907508456L382.7187463788275 387.88288907508456L375.50560178021107 387.88288907508456Q372.49780403252544 387.88288907508456 371.30025492928024 389.19183809491074Q370.102705826035 390.5007871147369 370.102705826035 393.31363500840587L370.102705826035 393.31363500840587L370.102705826035 513.0128453746358Q370.102705826035 518.4435913079571 375.50560178021107 518.4435913079571L375.50560178021107 518.4435913079571L394.7499373695701 518.4435913079571L394.7499373695701 524.8490865113617L326.9909381092076 524.8490865113617ZM502.6407565782195 528.4695838002426Q485.7915191953509 528.4695838002426 472.56277910136316 517.8308917667619Q459.3340390073754 507.19219973328126 451.89809457559704 489.8695127049437Q444.4900001229639 472.5189756974608 444.4900001229639 453.4695899621185L444.4900001229639 453.4695899621185Q444.4900001229639 434.42020422677615 451.89809457559704 417.0696672192933Q459.3340390073754 399.71913021181047 472.56277910136316 389.10828815747504Q485.7915191953509 378.4695961239944 502.6407565782195 378.4695961239944L502.6407565782195 378.4695961239944Q519.489993961088 378.4695961239944 532.7187340550759 389.10828815747504Q545.9474741490635 399.71913021181047 553.3555686016966 417.0696672192933Q560.791513033475 434.42020422677615 560.791513033475 453.4695899621185L560.791513033475 453.4695899621185Q560.791513033475 472.5189756974608 553.3555686016966 489.8695127049437Q545.9474741490635 507.19219973328126 532.7187340550759 517.8308917667619Q519.489993961088 528.4695838002426 502.6407565782195 528.4695838002426L502.6407565782195 528.4695838002426ZM502.6407565782195 522.0362386176928Q522.2749918756117 522.0362386176928 530.9084854106354 504.10085204815994Q539.5419789456589 486.1376154994819 539.5419789456589 453.4695899621185L539.5419789456589 453.4695899621185Q539.5419789456589 420.5787645915932 530.9084854106354 402.7269279594961Q522.2749918756117 384.875091327399 502.6407565782195 384.875091327399L502.6407565782195 384.875091327399Q482.9786713016819 384.875091327399 474.3730277458036 402.7269279594961Q465.73953421078 420.5787645915932 465.73953421078 453.4695899621185L465.73953421078 453.4695899621185Q465.73953421078 486.1376154994819 474.3730277458036 504.10085204815994Q482.9786713016819 522.0362386176928 502.6407565782195 522.0362386176928L502.6407565782195 522.0362386176928Z " fill="#358597" transform="matrix(0.47244559493695804,0,0,0.47244559493695804,0,85.76028188676665)"/><path d="M700.7882193741899 491.5829154652969L700.7882193741899 486.63313099841474L715.6590935768662 486.63313099841474Q719.8341291706712 486.63313099841474 719.8341291706712 482.43657460257987L719.8341291706712 482.43657460257987L719.8341291706712 389.9401674779737Q719.8341291706712 387.7665664729516 718.9087346833845 386.7550887775452Q717.9833401960979 385.74361108213884 715.6590935768662 385.74361108213884L715.6590935768662 385.74361108213884L710.0852058511163 385.74361108213884Q700.3147617295316 385.74361108213884 693.1913762576272 395.66470081793307L693.1913762576272 395.66470081793307Q688.6935286333736 402.0133374167601 687.1440308872192 411.54705271601574Q685.5945331410647 421.0807680152713 685.5945331410647 425.5786156395251L685.5945331410647 425.5786156395251L681.2473311310204 425.5786156395251L682.4955376487559 381.267284259915L771.4410124384249 381.267284259915L772.6676981541304 425.5786156395251L768.342016946116 425.5786156395251Q768.342016946116 421.0807680152713 766.7925191999617 411.54705271601574Q765.2430214538073 402.0133374167601 760.7451738295534 395.66470081793307L760.7451738295534 395.66470081793307Q753.6217883576492 385.74361108213884 743.8513442360644 385.74361108213884L743.8513442360644 385.74361108213884L738.2774565103146 385.74361108213884Q735.953209891083 385.74361108213884 735.0278154037964 386.7550887775452Q734.1024209165097 387.7665664729516 734.1024209165097 389.9401674779737L734.1024209165097 389.9401674779737L734.1024209165097 482.43657460257987Q734.1024209165097 486.63313099841474 738.2774565103146 486.63313099841474L738.2774565103146 486.63313099841474L753.148330712991 486.63313099841474L753.148330712991 491.5829154652969L700.7882193741899 491.5829154652969ZM801.1827608437775 401.7120461883412Q797.7824741230498 401.7120461883412 795.4582275038182 399.3877995691096Q793.1339808845865 397.063552949878 793.1339808845865 393.6632662291503L793.1339808845865 393.6632662291503Q793.1339808845865 390.09081309218317 795.4582275038182 387.8526496810712Q797.7824741230498 385.5929654679294 801.1827608437775 385.5929654679294L801.1827608437775 385.5929654679294Q804.7552139807447 385.5929654679294 806.9933773918565 387.8526496810712Q809.2530616049984 390.09081309218317 809.2530616049984 393.6632662291503L809.2530616049984 393.6632662291503Q809.2530616049984 397.063552949878 806.9933773918565 399.3877995691096Q804.7552139807447 401.7120461883412 801.1827608437775 401.7120461883412L801.1827608437775 401.7120461883412ZM786.6131778695201 491.5829154652969L786.6131778695201 487.8598167141203L793.1339808845865 487.8598167141203Q794.9847698591599 487.8598167141203 795.7595187322371 487.0850678410431Q796.5342676053143 486.3103189679659 796.5342676053143 484.45952999339255L796.5342676053143 484.45952999339255L796.5342676053143 428.0535078729661Q796.5342676053143 426.20271889839285 795.7595187322371 425.42797002531563Q794.9847698591599 424.6532211522384 793.1339808845865 424.6532211522384L793.1339808845865 424.6532211522384L786.6131778695201 424.6532211522384L786.6131778695201 420.93012240106185L807.7035638588441 420.93012240106185L807.7035638588441 484.45952999339255Q807.7035638588441 486.3103189679659 808.4783127319212 487.0850678410431Q809.2530616049984 487.8598167141203 811.1038505795717 487.8598167141203L811.1038505795717 487.8598167141203L817.6031327926082 487.8598167141203L817.6031327926082 491.5829154652969L786.6131778695201 491.5829154652969ZM860.3864872280939 493.4337044398702Q851.3907919795863 493.4337044398702 844.5041353300112 488.4839199729881Q837.5959578784061 483.53413550610594 833.8082967211398 475.0118979022567Q829.9991147618435 466.48966029840744 829.9991147618435 456.2457585321644L829.9991147618435 456.2457585321644Q829.9991147618435 446.0233775679513 833.8728591272295 437.50113996410204Q837.7466034926156 428.9789023602528 844.6547809442206 424.02911789337065Q851.5414375937958 419.0578126244586 860.3864872280939 419.0578126244586L860.3864872280939 419.0578126244586Q867.5098726999981 419.0578126244586 872.7824691973291 422.0922457106777Q878.0335448926302 425.1051579948668 880.83124915652 429.8397344414497Q883.62895342041 434.5527900860027 883.62895342041 439.3734497407053L883.62895342041 439.3734497407053Q883.62895342041 444.17258859337795 881.1325403849389 446.8842096491482Q878.6576481514978 449.5958307049184 875.1067158165607 449.5958307049184L875.1067158165607 449.5958307049184Q872.0077203242519 449.5958307049184 869.8986817253195 447.5728753141057Q867.811163928417 445.57144072532293 867.811163928417 442.77373646143303L867.811163928417 442.77373646143303Q867.811163928417 439.97603219754313 869.3606616745715 438.1252432229698Q870.9101594207259 436.27445424839647 873.083760425748 435.65035098952876L873.083760425748 435.65035098952876Q875.5586526591891 434.87560211645155 875.5586526591891 432.85264672563886L875.5586526591891 432.85264672563886Q875.5586526591891 431.00185775106553 873.9445925069449 428.6776111318339Q872.3090115526708 426.3533645126023 868.9087248319431 424.5671379441187Q865.4869173091854 422.7809113756352 860.3864872280939 422.7809113756352L860.3864872280939 422.7809113756352Q850.6160431065091 422.7809113756352 847.1296731776617 431.152503365275Q843.6433032488143 439.5240953549148 843.6433032488143 456.2457585321644L843.6433032488143 456.2457585321644Q843.6433032488143 472.988942511444 847.043589969542 481.36053450108375Q850.4653974922996 489.73212649072354 860.3864872280939 489.73212649072354L860.3864872280939 489.73212649072354Q869.8341193192298 489.73212649072354 874.9345494003213 483.06067786144763Q880.0565002834428 476.3892292321717 881.1325403849389 467.41505478569405L881.1325403849389 467.41505478569405L884.8556391361155 467.41505478569405Q884.4037022934872 473.76369138452117 881.6059980295972 479.7249535468097Q878.8082937657074 485.6862157090981 873.3850516541669 489.5599600744842Q867.9618095426265 493.4337044398702 860.3864872280939 493.4337044398702L860.3864872280939 493.4337044398702ZM917.3950918053581 493.4337044398702Q909.1956662319576 493.4337044398702 903.2128832676392 489.40931446027474Q897.2516211053508 485.3849244806792 897.2516211053508 475.16254351646614L897.2516211053508 475.16254351646614Q897.2516211053508 467.26440917148466 901.2760110849463 462.7665615472309Q905.3219218665716 458.2687139229771 910.6590807699924 456.3318417402841Q915.9962396734131 454.3949695575911 923.5930827899758 452.9961174256461L923.5930827899758 452.9961174256461L937.8613745358142 450.3705795779956L937.8613745358142 437.19984873568313Q937.8613745358142 422.7809113756352 923.4424371757663 422.7809113756352L923.4424371757663 422.7809113756352Q918.1698406784353 422.7809113756352 913.8441594704209 425.4925324314054Q909.4969574603765 428.20415348717563 909.4969574603765 431.62596100993323L909.4969574603765 431.62596100993323Q909.4969574603765 433.17545875608766 909.9704151050348 433.9502076291649L909.9704151050348 433.9502076291649Q910.2717063334537 434.40214447179324 910.9603719984113 434.87560211645155Q911.6705584653987 435.3275389590799 912.2946617242665 435.49970537531925L912.2946617242665 435.49970537531925Q915.0708451861265 436.27445424839647 916.5557805261911 437.6517855783115Q918.0191950642259 439.05063771025647 918.0191950642259 441.52552994369756L918.0191950642259 441.52552994369756Q918.0191950642259 444.7966918522457 916.0823228815328 446.17402318216074Q914.1454506988398 447.5728753141057 911.1971008207404 447.5728753141057L911.1971008207404 447.5728753141057Q907.7968141000127 447.5728753141057 904.9991098361229 444.94733746645517Q902.2229263742629 442.3002788167747 902.2229263742629 437.3504943498926L902.2229263742629 437.3504943498926Q902.2229263742629 431.62596100993323 905.3864842726614 427.4294046140984Q908.57156297309 423.2543690202935 913.6074306480918 421.166851223391Q918.6432983230936 419.0578126244586 923.9158948204246 419.0578126244586L923.9158948204246 419.0578126244586Q934.1382757846377 419.0578126244586 941.5629524849608 424.41649232990926Q949.009149987314 429.75365123333 949.009149987314 441.07359310106915L949.009149987314 441.07359310106915L949.009149987314 479.1869334960616Q949.009149987314 486.93442222683365 953.8082888399867 486.93442222683365L953.8082888399867 486.93442222683365Q957.6820332053727 486.93442222683365 959.3821765657365 482.43657460257987Q961.1038407281303 477.9387269783261 961.1038407281303 471.4394447652896L961.1038407281303 471.4394447652896L963.8800241899903 471.4394447652896Q963.8800241899903 480.73643124221604 961.1684031342202 487.0850678410431Q958.4567820784499 493.4337044398702 951.4840422207551 493.4337044398702L951.4840422207551 493.4337044398702Q944.834114393509 493.4337044398702 941.4983900788711 489.4953976683944Q938.1626657642331 485.53557009488867 937.8613745358142 478.56283023719385L937.8613745358142 478.56283023719385L937.0866256627371 478.26153900877495Q934.7623790435055 483.6847811203154 929.5543449522643 488.5700031811078Q924.3678316630529 493.4337044398702 917.3950918053581 493.4337044398702L917.3950918053581 493.4337044398702ZM919.8699840387992 487.8598167141203Q926.842723896494 487.8598167141203 930.8025514699997 482.3720121964901Q934.7623790435055 476.86268687682997 937.8613745358142 468.3404492729807L937.8613745358142 468.3404492729807L937.8613745358142 453.62022068451387L924.3678316630529 456.5685705626133Q916.9431549627297 458.11806830876765 913.6074306480918 462.6804783391112Q910.2717063334537 467.26440917148466 910.2717063334537 475.6144803590945L910.2717063334537 475.6144803590945Q910.2717063334537 482.7593866330287 913.2200562115531 485.29884127255957Q916.1684060896525 487.8598167141203 919.8699840387992 487.8598167141203L919.8699840387992 487.8598167141203ZM972.552907408049 491.5829154652969L972.552907408049 487.8598167141203L979.0737104231155 487.8598167141203Q980.9244993976888 487.8598167141203 981.699248270766 487.0850678410431Q982.4739971438432 486.3103189679659 982.4739971438432 484.45952999339255L982.4739971438432 484.45952999339255L982.4739971438432 428.0535078729661Q982.4739971438432 426.20271889839285 981.699248270766 425.42797002531563Q980.9244993976888 424.6532211522384 979.0737104231155 424.6532211522384L979.0737104231155 424.6532211522384L972.552907408049 424.6532211522384L972.552907408049 420.93012240106185L993.6432933973729 420.93012240106185L993.6432933973729 436.4250998626059L994.2458758542107 436.57574547681537Q997.517037762759 428.52696551762443 1002.7035510519702 423.79238907104155Q1007.8900643411815 419.0578126244586 1013.7867640973802 419.0578126244586L1013.7867640973802 419.0578126244586Q1019.661943051549 419.0578126244586 1023.3850418027255 422.4796201472163Q1027.108140553902 425.879906867944 1027.108140553902 431.77660662414274L1027.108140553902 431.77660662414274Q1027.108140553902 435.17689334487045 1024.6978107265509 438.4265344513887Q1022.3090017012294 441.6976963599369 1018.585902950053 441.6976963599369L1018.585902950053 441.6976963599369Q1015.6375530719536 441.6976963599369 1013.6145976811408 440.1481986137825Q1011.613163092358 438.5987008676281 1011.613163092358 435.80099660373816L1011.613163092358 435.80099660373816Q1011.613163092358 432.5513554972199 1014.7121585846669 430.2271088779883L1014.7121585846669 430.2271088779883Q1016.1110107166119 429.30171439070165 1016.7996763815693 428.52696551762443Q1017.4883420465269 427.7522166445472 1017.4883420465269 426.50401012681175L1017.4883420465269 426.50401012681175Q1017.4883420465269 425.1051579948668 1016.1755731227015 424.2658467156998Q1014.8628041988763 423.40501463450295 1012.5385575796447 423.40501463450295L1012.5385575796447 423.40501463450295Q1007.739418726972 423.40501463450295 1003.3276543108379 428.0535078729661Q998.894369092674 432.70200111142935 996.2688312450234 440.1481986137825Q993.6432933973729 447.5728753141057 993.6432933973729 455.6431760753266L993.6432933973729 455.6431760753266L993.6432933973729 484.45952999339255Q993.6432933973729 486.3103189679659 994.4180422704501 487.0850678410431Q995.1927911435273 487.8598167141203 997.0435801181006 487.8598167141203L997.0435801181006 487.8598167141203L1003.5428623311371 487.8598167141203L1003.5428623311371 491.5829154652969L972.552907408049 491.5829154652969ZM1050.6518979746374 401.7120461883412Q1047.2516112539097 401.7120461883412 1044.9273646346778 399.3877995691096Q1042.6031180154464 397.063552949878 1042.6031180154464 393.6632662291503L1042.6031180154464 393.6632662291503Q1042.6031180154464 390.09081309218317 1044.9273646346778 387.8526496810712Q1047.2516112539097 385.5929654679294 1050.6518979746374 385.5929654679294L1050.6518979746374 385.5929654679294Q1054.2243511116044 385.5929654679294 1056.4625145227164 387.8526496810712Q1058.722198735858 390.09081309218317 1058.722198735858 393.6632662291503L1058.722198735858 393.6632662291503Q1058.722198735858 397.063552949878 1056.4625145227164 399.3877995691096Q1054.2243511116044 401.7120461883412 1050.6518979746374 401.7120461883412L1050.6518979746374 401.7120461883412ZM1036.0823150003798 491.5829154652969L1036.0823150003798 487.8598167141203L1042.6031180154464 487.8598167141203Q1044.4539069900197 487.8598167141203 1045.2286558630967 487.0850678410431Q1046.0034047361742 486.3103189679659 1046.0034047361742 484.45952999339255L1046.0034047361742 484.45952999339255L1046.0034047361742 428.0535078729661Q1046.0034047361742 426.20271889839285 1045.2286558630967 425.42797002531563Q1044.4539069900197 424.6532211522384 1042.6031180154464 424.6532211522384L1042.6031180154464 424.6532211522384L1036.0823150003798 424.6532211522384L1036.0823150003798 420.93012240106185L1057.1727009897036 420.93012240106185L1057.1727009897036 484.45952999339255Q1057.1727009897036 486.3103189679659 1057.947449862781 487.0850678410431Q1058.722198735858 487.8598167141203 1060.5729877104313 487.8598167141203L1060.5729877104313 487.8598167141203L1067.072269923468 487.8598167141203L1067.072269923468 491.5829154652969L1036.0823150003798 491.5829154652969ZM1171.2114309462622 494.3806197291868Q1158.191345718159 494.3806197291868 1147.9689647539458 486.15967335375643Q1137.746583789733 477.9387269783261 1132.0005296477434 464.5527881157144Q1126.2759963077842 451.1453284510728 1126.2759963077842 436.4250998626059L1126.2759963077842 436.4250998626059Q1126.2759963077842 421.70487127413907 1132.0005296477434 408.29741160949743Q1137.746583789733 394.88995194485585 1147.9689647539458 386.69052637145546Q1158.191345718159 378.4695799960251 1171.2114309462622 378.4695799960251L1171.2114309462622 378.4695799960251Q1184.231516174365 378.4695799960251 1194.4538971385782 386.69052637145546Q1204.6762781027915 394.88995194485585 1210.4008114427506 408.29741160949743Q1216.1468655847398 421.70487127413907 1216.1468655847398 436.4250998626059L1216.1468655847398 436.4250998626059Q1216.1468655847398 451.1453284510728 1210.4008114427506 464.5527881157144Q1204.6762781027915 477.9387269783261 1194.4538971385782 486.15967335375643Q1184.231516174365 494.3806197291868 1171.2114309462622 494.3806197291868L1171.2114309462622 494.3806197291868ZM1171.2114309462622 489.40931446027474Q1186.3835963773572 489.40931446027474 1193.055045006633 475.54991795300475Q1199.7264936359093 461.6690006437048 1199.7264936359093 436.4250998626059L1199.7264936359093 436.4250998626059Q1199.7264936359093 411.0090326652677 1193.055045006633 397.21419856408744Q1186.3835963773572 383.41936446290725 1171.2114309462622 383.41936446290725L1171.2114309462622 383.41936446290725Q1156.0177447131368 383.41936446290725 1149.367816885891 397.21419856408744Q1142.6963682566152 411.0090326652677 1142.6963682566152 436.4250998626059L1142.6963682566152 436.4250998626059Q1142.6963682566152 461.6690006437048 1149.367816885891 475.54991795300475Q1156.0177447131368 489.40931446027474 1171.2114309462622 489.40931446027474L1171.2114309462622 489.40931446027474ZM1255.8097037258867 493.4337044398702Q1248.836963868192 493.4337044398702 1244.2745538378485 488.4839199729881Q1239.6906230054751 483.53413550610594 1239.6906230054751 475.0118979022567L1239.6906230054751 475.0118979022567L1239.6906230054751 425.2558036090763L1228.2200355235263 425.2558036090763L1228.2200355235263 420.93012240106185L1231.641843046284 420.93012240106185Q1238.6145829039788 420.93012240106185 1242.5528896754545 413.419362492619Q1246.5127172489601 405.88708178214614 1246.5127172489601 396.7622617214591L1246.5127172489601 396.7622617214591L1246.5127172489601 391.1668531936793L1250.8599192590045 391.1668531936793L1250.8599192590045 420.93012240106185L1270.0564746696955 420.93012240106185L1270.0564746696955 425.2558036090763L1250.8599192590045 425.2558036090763L1250.8599192590045 475.78664677533385Q1250.8599192590045 480.43514001379714 1252.7107082335779 483.53413550610594Q1254.5614972081512 486.63313099841474 1259.0593448324053 486.63313099841474L1259.0593448324053 486.63313099841474Q1270.0564746696955 486.63313099841474 1270.0564746696955 468.0391580445618L1270.0564746696955 468.0391580445618L1272.854178933585 468.0391580445618Q1272.854178933585 478.4121846229844 1269.841266649396 485.9229445314273Q1266.806833563177 493.4337044398702 1255.8097037258867 493.4337044398702L1255.8097037258867 493.4337044398702ZM1316.5414070543275 493.4337044398702Q1308.0191694504783 493.4337044398702 1300.8957839785744 488.3978367648684Q1293.77239850667 483.36196908986653 1289.6619253189547 474.8397314860173Q1285.5514521312393 466.31749388216804 1285.5514521312393 456.2457585321644L1285.5514521312393 456.2457585321644Q1285.5514521312393 446.17402318216074 1289.6619253189547 437.6517855783115Q1293.77239850667 429.12954797446224 1300.8957839785744 424.09368029946046Q1308.0191694504783 419.0578126244586 1316.5414070543275 419.0578126244586L1316.5414070543275 419.0578126244586Q1325.063644658177 419.0578126244586 1332.208550932111 424.09368029946046Q1339.3319364040153 429.12954797446224 1343.4424095917307 437.6517855783115Q1347.5313619774156 446.17402318216074 1347.5313619774156 456.2457585321644L1347.5313619774156 456.2457585321644Q1347.5313619774156 466.31749388216804 1343.4424095917307 474.8397314860173Q1339.3319364040153 483.36196908986653 1332.208550932111 488.3978367648684Q1325.063644658177 493.4337044398702 1316.5414070543275 493.4337044398702L1316.5414070543275 493.4337044398702ZM1316.5414070543275 489.73212649072354Q1325.838393531254 489.73212649072354 1329.8843043128795 480.9731600645452Q1333.908694292475 472.2141936383668 1333.908694292475 456.2457585321644L1333.908694292475 456.2457585321644Q1333.908694292475 440.29884422799194 1329.8843043128795 431.5398778018136Q1325.838393531254 422.7809113756352 1316.5414070543275 422.7809113756352L1316.5414070543275 422.7809113756352Q1307.2444205774013 422.7809113756352 1303.2200305978058 431.5398778018136Q1299.1956406182103 440.29884422799194 1299.1956406182103 456.2457585321644L1299.1956406182103 456.2457585321644Q1299.1956406182103 472.2141936383668 1303.2200305978058 480.9731600645452Q1307.2444205774013 489.73212649072354 1316.5414070543275 489.73212649072354L1316.5414070543275 489.73212649072354ZM1360.8742592359677 491.5829154652969L1360.8742592359677 487.8598167141203L1367.3735414490043 487.8598167141203Q1369.2243304235776 487.8598167141203 1369.9990792966546 487.0850678410431Q1370.773828169732 486.3103189679659 1370.773828169732 484.45952999339255L1370.773828169732 484.45952999339255L1370.773828169732 428.0535078729661Q1370.773828169732 426.20271889839285 1369.9990792966546 425.42797002531563Q1369.2243304235776 424.6532211522384 1367.3735414490043 424.6532211522384L1367.3735414490043 424.6532211522384L1360.8742592359677 424.6532211522384L1360.8742592359677 420.93012240106185L1381.9431244232615 420.93012240106185L1381.9431244232615 433.3261043702971L1382.5672276821292 433.47674998450657Q1385.8168687886478 426.3533645126023 1391.003382077859 422.71634896954544Q1396.1898953670702 419.0578126244586 1402.086595123269 419.0578126244586L1402.086595123269 419.0578126244586Q1411.232935985986 419.0578126244586 1415.6447004021202 424.02911789337065Q1420.056464818254 428.9789023602528 1421.6059625644084 435.80099660373816L1421.6059625644084 435.80099660373816L1422.2300658232762 435.80099660373816Q1424.0808547978495 429.60300561912055 1429.5901801175096 424.3304091217896Q1435.0779846351397 419.0578126244586 1442.3735365232837 419.0578126244586L1442.3735365232837 419.0578126244586Q1453.6719575889929 419.0578126244586 1458.4065340355755 426.6546557410212Q1463.1411104821586 434.2514988575838 1463.1411104821586 444.47387982179686L1463.1411104821586 444.47387982179686L1463.1411104821586 484.45952999339255Q1463.1411104821586 486.3103189679659 1463.9158593552356 487.0850678410431Q1464.690608228313 487.8598167141203 1466.5413972028864 487.8598167141203L1466.5413972028864 487.8598167141203L1473.040679415923 487.8598167141203L1473.040679415923 491.5829154652969L1442.050724492835 491.5829154652969L1442.050724492835 487.8598167141203L1448.571527507901 487.8598167141203Q1450.4223164824743 487.8598167141203 1451.1970653555518 487.0850678410431Q1451.9718142286288 486.3103189679659 1451.9718142286288 484.45952999339255L1451.9718142286288 484.45952999339255L1451.9718142286288 439.05063771025647Q1451.9718142286288 432.85264672563886 1449.0234643505296 428.1395910810858Q1446.09663527446 423.40501463450295 1440.5012267466805 423.40501463450295L1440.5012267466805 423.40501463450295Q1435.8527335082172 423.40501463450295 1431.7637811225318 427.0420301775598Q1427.6533079348164 430.67904572061667 1425.092332493256 437.0492031214737Q1422.531357051695 443.3978397203008 1422.531357051695 451.2959740652823L1422.531357051695 451.2959740652823L1422.531357051695 484.45952999339255Q1422.531357051695 486.3103189679659 1423.3061059247725 487.0850678410431Q1424.0808547978495 487.8598167141203 1425.9531645744528 487.8598167141203L1425.9531645744528 487.8598167141203L1432.4524467874894 487.8598167141203L1432.4524467874894 491.5829154652969L1401.4624918644013 491.5829154652969L1401.4624918644013 487.8598167141203L1407.961774077438 487.8598167141203Q1409.8340838540412 487.8598167141203 1410.6088327271182 487.0850678410431Q1411.3835816001952 486.3103189679659 1411.3835816001952 484.45952999339255L1411.3835816001952 484.45952999339255L1411.3835816001952 439.05063771025647Q1411.3835816001952 432.85264672563886 1408.435231722096 428.1395910810858Q1405.4868818439968 423.40501463450295 1399.9129941182468 423.40501463450295L1399.9129941182468 423.40501463450295Q1395.2645008797836 423.40501463450295 1391.1540276920682 427.0420301775598Q1387.0435545043533 430.67904572061667 1384.5040998648224 437.0492031214737Q1381.9431244232615 443.3978397203008 1381.9431244232615 451.2959740652823L1381.9431244232615 451.2959740652823L1381.9431244232615 484.45952999339255Q1381.9431244232615 486.3103189679659 1382.717873296339 487.0850678410431Q1383.4926221694159 487.8598167141203 1385.3434111439892 487.8598167141203L1385.3434111439892 487.8598167141203L1391.8642141590558 487.8598167141203L1391.8642141590558 491.5829154652969L1360.8742592359677 491.5829154652969ZM1505.2788408567467 493.4337044398702Q1497.057894481316 493.4337044398702 1491.0966323190278 489.40931446027474Q1485.135370156739 485.3849244806792 1485.135370156739 475.16254351646614L1485.135370156739 475.16254351646614Q1485.135370156739 467.26440917148466 1489.1597601363346 462.7665615472309Q1493.1841501159302 458.2687139229771 1498.5428298213806 456.3318417402841Q1503.8799887248015 454.3949695575911 1511.476831841364 452.9961174256461L1511.476831841364 452.9961174256461L1525.7236027851727 450.3705795779956L1525.7236027851727 437.19984873568313Q1525.7236027851727 422.7809113756352 1511.3261862271547 422.7809113756352L1511.3261862271547 422.7809113756352Q1506.0535897298237 422.7809113756352 1501.7063877197793 425.4925324314054Q1497.3807065117649 428.20415348717563 1497.3807065117649 431.62596100993323L1497.3807065117649 431.62596100993323Q1497.3807065117649 433.17545875608766 1497.8326433543934 433.9502076291649L1497.8326433543934 433.9502076291649Q1498.1554553848423 434.40214447179324 1498.8441210497995 434.87560211645155Q1499.554307516787 435.3275389590799 1500.1568899736249 435.49970537531925L1500.1568899736249 435.49970537531925Q1502.9545942375148 436.27445424839647 1504.4180087755494 437.6517855783115Q1505.9029441156144 439.05063771025647 1505.9029441156144 441.52552994369756L1505.9029441156144 441.52552994369756Q1505.9029441156144 444.7966918522457 1503.9660719329213 446.17402318216074Q1502.0291997502281 447.5728753141057 1499.080849872129 447.5728753141057L1499.080849872129 447.5728753141057Q1495.6805631514012 447.5728753141057 1492.8828588875112 444.94733746645517Q1490.0851546236213 442.3002788167747 1490.0851546236213 437.3504943498926L1490.0851546236213 437.3504943498926Q1490.0851546236213 431.62596100993323 1493.27023332405 427.4294046140984Q1496.4553120244782 423.2543690202935 1501.4911796994802 421.166851223391Q1506.5270473744822 419.0578126244586 1511.7781230697829 419.0578126244586L1511.7781230697829 419.0578126244586Q1522.022024836026 419.0578126244586 1529.4467015363493 424.41649232990926Q1536.8928990387026 429.75365123333 1536.8928990387026 441.07359310106915L1536.8928990387026 441.07359310106915L1536.8928990387026 479.1869334960616Q1536.8928990387026 486.93442222683365 1541.692037891375 486.93442222683365L1541.692037891375 486.93442222683365Q1545.565782256761 486.93442222683365 1547.265925617125 482.43657460257987Q1548.9660689774887 477.9387269783261 1548.9660689774887 471.4394447652896L1548.9660689774887 471.4394447652896L1551.7637732413787 471.4394447652896Q1551.7637732413787 480.73643124221604 1549.0521521856085 487.0850678410431Q1546.3405311298384 493.4337044398702 1539.3677912721437 493.4337044398702L1539.3677912721437 493.4337044398702Q1532.6963426428674 493.4337044398702 1529.3821391302595 489.4953976683944Q1526.0464148156216 485.53557009488867 1525.7236027851727 478.56283023719385L1525.7236027851727 478.56283023719385L1524.9488539120957 478.26153900877495Q1522.6246072928639 483.6847811203154 1517.4380940036526 488.5700031811078Q1512.2515807144414 493.4337044398702 1505.2788408567467 493.4337044398702L1505.2788408567467 493.4337044398702ZM1507.7537330901878 487.8598167141203Q1514.7264729478825 487.8598167141203 1518.6863005213881 482.3720121964901Q1522.6246072928639 476.86268687682997 1525.7236027851727 468.3404492729807L1525.7236027851727 468.3404492729807L1525.7236027851727 453.62022068451387L1512.2515807144414 456.5685705626133Q1504.8053832120881 458.11806830876765 1501.4911796994802 462.6804783391112Q1498.1554553848423 467.26440917148466 1498.1554553848423 475.6144803590945L1498.1554553848423 475.6144803590945Q1498.1554553848423 482.7593866330287 1501.1038052629415 485.29884127255957Q1504.0306343390112 487.8598167141203 1507.7537330901878 487.8598167141203L1507.7537330901878 487.8598167141203ZM1563.8584639821952 493.4337044398702L1563.8584639821952 462.7665615472309L1566.6346474440552 462.7665615472309L1572.3807015860443 475.0118979022567Q1580.7307727736543 489.73212649072354 1594.0736700322059 489.73212649072354L1594.0736700322059 489.73212649072354Q1601.1970555041103 489.73212649072354 1604.6834254329578 486.24575656187614Q1608.169795361805 482.7593866330287 1608.169795361805 476.7120412626206L1608.169795361805 476.7120412626206Q1608.169795361805 473.13958812565346 1605.4581743060348 470.27732145567376Q1602.7465532502647 467.41505478569405 1598.248705626011 465.71491142533023L1598.248705626011 465.71491142533023L1580.5801271594446 458.570005151396Q1572.2085351698051 455.1697184306683 1567.4093963171322 450.3705795779956Q1562.6102574644597 445.57144072532293 1562.6102574644597 438.1252432229698L1562.6102574644597 438.1252432229698Q1562.6102574644597 428.6776111318339 1568.506957220658 423.8784722791612Q1574.3821361748269 419.0578126244586 1583.3778314233346 419.0578126244586L1583.3778314233346 419.0578126244586Q1587.8756790475882 419.0578126244586 1591.8139858190643 420.54274796452324Q1595.77381339257 422.00616250255797 1598.3993512402203 424.02911789337065L1598.3993512402203 424.02911789337065Q1601.821158762978 426.50401012681175 1603.5213021233417 426.50401012681175L1603.5213021233417 426.50401012681175Q1605.5227367121247 426.50401012681175 1605.9961943567828 423.70630586292185L1605.9961943567828 423.70630586292185L1606.2974855852017 420.60731037061305L1609.0951898490916 420.60731037061305L1609.0951898490916 444.17258859337795L1606.2974855852017 444.17258859337795L1604.1454053822094 438.74934648183756Q1600.5729522452425 429.90429684753946 1594.7623356971635 426.3533645126023Q1588.9517191490845 422.7809113756352 1583.2271858091253 422.7809113756352L1583.2271858091253 422.7809113756352Q1577.4811316671357 422.7809113756352 1573.7580329159591 425.64317804561483Q1570.0564549668125 428.52696551762443 1570.0564549668125 433.627395598716L1570.0564549668125 433.627395598716Q1570.0564549668125 438.1252432229698 1573.6934705098697 440.9875098929495Q1577.3304860529265 443.84977656292915 1583.6791226517535 446.4968352126096L1583.6791226517535 446.4968352126096L1600.4223066310333 453.4695750703044Q1607.8469833313561 456.5685705626133 1611.5700820825327 460.9803349787473Q1615.2931808337094 465.3920993948814 1615.2931808337094 473.2902337398629L1615.2931808337094 473.2902337398629Q1615.2931808337094 483.6847811203154 1609.3964810775105 488.5700031811078Q1603.5213021233417 493.4337044398702 1593.9015036159667 493.4337044398702L1593.9015036159667 493.4337044398702Q1588.1769702760075 493.4337044398702 1584.6045171390401 491.8842066937158Q1581.0535848041031 490.3347089475614 1577.6317772813454 487.70917109991086L1577.6317772813454 487.70917109991086Q1576.2544459514302 486.63313099841474 1574.8555938194854 485.8583821253375Q1573.4567416875402 485.0836332522603 1572.3807015860443 485.0836332522603L1572.3807015860443 485.0836332522603Q1568.6576028348677 485.0836332522603 1567.258750702923 490.3347089475614L1567.258750702923 490.3347089475614L1566.6346474440552 493.4337044398702L1563.8584639821952 493.4337044398702ZM1642.5600370056209 528.4695701445837Q1636.5126916352128 528.4695701445837 1632.638947269827 524.5958257791976L1632.638947269827 524.5958257791976Q1630.637512681044 522.7235160025946 1629.4753893714283 520.1625405610337Q1628.3132660618126 517.6230859215029 1628.3132660618126 514.825381657613L1628.3132660618126 514.825381657613Q1628.3132660618126 512.8024262668002 1629.0019317267697 511.03772050034667Q1629.7121181937573 509.2514939318631 1630.7881582952537 508.3260994445764L1630.7881582952537 508.3260994445764Q1633.112404914485 506.0018528253448 1636.0607547925847 506.0018528253448L1636.0607547925847 506.0018528253448Q1639.6116871275217 506.0018528253448 1641.3979136960052 508.24001623645677Q1643.1841402644886 510.47817964756865 1643.1841402644886 513.8999871703263L1643.1841402644886 513.8999871703263Q1643.1841402644886 515.7507761448996 1641.935933746753 518.2256683783407L1641.935933746753 518.2256683783407Q1641.0105392594664 519.7751661244952 1641.0105392594664 521.1740182564401L1641.0105392594664 521.1740182564401Q1641.0105392594664 523.4982648756717 1644.1095347517753 523.4982648756717L1644.1095347517753 523.4982648756717Q1648.7580279902386 523.4982648756717 1651.9431066906673 519.8612493326148Q1655.1066645890655 516.224233789558 1656.65616233522 511.25292852064587L1656.65616233522 511.25292852064587L1660.8527187310551 497.7809064499145L1638.8369382544442 433.7780412129255Q1636.986149279871 428.82825674604334 1635.2860059195073 426.7407389491409Q1633.5858625591436 424.6532211522384 1629.7121181937573 424.6532211522384L1629.7121181937573 424.6532211522384L1624.590167310636 424.6532211522384L1624.590167310636 420.93012240106185L1659.6045122133196 420.93012240106185L1659.6045122133196 424.6532211522384L1654.6547277464374 424.6532211522384Q1652.7824179698341 424.6532211522384 1651.2329202236797 425.64317804561483Q1649.6834224775253 426.6546557410212 1649.6834224775253 428.3547991013851L1649.6834224775253 428.3547991013851Q1649.6834224775253 431.00185775106553 1650.6303377668419 433.47674998450657L1650.6303377668419 433.47674998450657L1666.727897685224 481.03772247063495L1679.5973372991175 438.5987008676281Q1680.2214405579853 436.7263910910249 1680.7594606087332 434.40214447179324Q1681.2974806594812 432.07789785256165 1681.2974806594812 430.67904572061667L1681.2974806594812 430.67904572061667Q1681.2974806594812 428.0535078729661 1679.7479829133267 426.3533645126023Q1678.1984851671723 424.6532211522384 1675.7235929337312 424.6532211522384L1675.7235929337312 424.6532211522384L1672.0004941825546 424.6532211522384L1672.0004941825546 420.93012240106185L1700.2142656437832 420.93012240106185L1700.2142656437832 424.6532211522384L1696.6418125068158 424.6532211522384Q1693.241525786088 424.6532211522384 1690.3577383140787 426.89138456335036Q1687.4954716440989 429.12954797446224 1685.9459738979444 433.7780412129255L1685.9459738979444 433.7780412129255L1661.0033643452643 513.1252382972491Q1659.3032209849002 518.8497716372085 1654.5040821322277 523.6489104898811Q1649.6834224775253 528.4695701445837 1642.5600370056209 528.4695701445837L1642.5600370056209 528.4695701445837ZM1734.9057985160175 493.4337044398702Q1726.3835609121684 493.4337044398702 1719.260175440264 488.3978367648684Q1712.13678996836 483.36196908986653 1708.0263167806447 474.8397314860173Q1703.9158435929294 466.31749388216804 1703.9158435929294 456.2457585321644L1703.9158435929294 456.2457585321644Q1703.9158435929294 446.17402318216074 1708.0263167806447 437.6517855783115Q1712.13678996836 429.12954797446224 1719.260175440264 424.09368029946046Q1726.3835609121684 419.0578126244586 1734.9057985160175 419.0578126244586L1734.9057985160175 419.0578126244586Q1743.428036119867 419.0578126244586 1750.5729423938014 424.09368029946046Q1757.6963278657054 429.12954797446224 1761.8068010534207 437.6517855783115Q1765.895753439106 446.17402318216074 1765.895753439106 456.2457585321644L1765.895753439106 456.2457585321644Q1765.895753439106 466.31749388216804 1761.8068010534207 474.8397314860173Q1757.6963278657054 483.36196908986653 1750.5729423938014 488.3978367648684Q1743.428036119867 493.4337044398702 1734.9057985160175 493.4337044398702L1734.9057985160175 493.4337044398702ZM1734.9057985160175 489.73212649072354Q1744.202784992944 489.73212649072354 1748.2486957745696 480.9731600645452Q1752.273085754165 472.2141936383668 1752.273085754165 456.2457585321644L1752.273085754165 456.2457585321644Q1752.273085754165 440.29884422799194 1748.2486957745696 431.5398778018136Q1744.202784992944 422.7809113756352 1734.9057985160175 422.7809113756352L1734.9057985160175 422.7809113756352Q1725.6088120390914 422.7809113756352 1721.5844220594959 431.5398778018136Q1717.5600320799003 440.29884422799194 1717.5600320799003 456.2457585321644L1717.5600320799003 456.2457585321644Q1717.5600320799003 472.2141936383668 1721.5844220594959 480.9731600645452Q1725.6088120390914 489.73212649072354 1734.9057985160175 489.73212649072354L1734.9057985160175 489.73212649072354ZM1779.2386506976577 491.5829154652969L1779.2386506976577 487.8598167141203L1785.7379329106943 487.8598167141203Q1787.5887218852677 487.8598167141203 1788.363470758345 487.0850678410431Q1789.138219631422 486.3103189679659 1789.138219631422 484.45952999339255L1789.138219631422 484.45952999339255L1789.138219631422 428.0535078729661Q1789.138219631422 426.20271889839285 1788.363470758345 425.42797002531563Q1787.5887218852677 424.6532211522384 1785.7379329106943 424.6532211522384L1785.7379329106943 424.6532211522384L1779.2386506976577 424.6532211522384L1779.2386506976577 420.93012240106185L1800.3075158849515 420.93012240106185L1800.3075158849515 433.627395598716L1800.9316191438193 433.7780412129255Q1804.4825514787567 426.3533645126023 1809.7551479760873 422.71634896954544Q1815.0277444734184 419.0578126244586 1821.3763810722457 419.0578126244586L1821.3763810722457 419.0578126244586Q1832.6963229399848 419.0578126244586 1837.4093785845375 426.03055248215344Q1842.1439550311206 433.0032923398483 1842.1439550311206 442.77373646143303L1842.1439550311206 442.77373646143303L1842.1439550311206 484.45952999339255Q1842.1439550311206 486.3103189679659 1842.918703904198 487.0850678410431Q1843.6934527772755 487.8598167141203 1845.5442417518484 487.8598167141203L1845.5442417518484 487.8598167141203L1852.065044766915 487.8598167141203L1852.065044766915 491.5829154652969L1821.0750898438268 491.5829154652969L1821.0750898438268 487.8598167141203L1827.5743720568635 487.8598167141203Q1829.4251610314368 487.8598167141203 1830.1999099045138 487.0850678410431Q1830.9746587775912 486.3103189679659 1830.9746587775912 484.45952999339255L1830.9746587775912 484.45952999339255L1830.9746587775912 439.8253865833337Q1830.9746587775912 433.0032923398483 1828.2630377218206 428.20415348717563Q1825.5514166660505 423.40501463450295 1819.0521344530139 423.40501463450295L1819.0521344530139 423.40501463450295Q1813.6288923414736 423.40501463450295 1809.367773539549 427.19267579176926Q1805.1066547376245 431.00185775106553 1802.6963249102728 437.58722317222174Q1800.3075158849515 444.17258859337795 1800.3075158849515 452.22136855256895L1800.3075158849515 452.22136855256895L1800.3075158849515 484.45952999339255Q1800.3075158849515 486.3103189679659 1801.082264758029 487.0850678410431Q1801.857013631106 487.8598167141203 1803.7078026056797 487.8598167141203L1803.7078026056797 487.8598167141203L1810.2286056207458 487.8598167141203L1810.2286056207458 491.5829154652969L1779.2386506976577 491.5829154652969Z " fill="#f4a896" transform="matrix(0.47244559493695804,0,0,0.47244559493695804,0,85.76028188676665)"/></g></svg>